<?xml version="1.0" standalone="no"?><!DOCTYPE svg PUBLIC "-//W3C//DTD SVG 1.1//EN" "http://www.w3.org/Graphics/SVG/1.1/DTD/svg11.dtd"><svg t="1551496252960" class="icon" style="" viewBox="0 0 1024 1024" version="1.1" xmlns="http://www.w3.org/2000/svg" p-id="3325" xmlns:xlink="http://www.w3.org/1999/xlink" width="128" height="128"><defs><style type="text/css"></style></defs><path d="M942.397178 396.454103 942.397178 264.518281l-114.519946-66.130473-65.808961-114.194821-131.939434 0L515.619728 18.062513l-114.202046 66.126861L269.48186 84.189374 203.347774 198.387808l-114.516334 66.130473 0 131.935822-65.805348 114.191209 66.126861 114.198434 0 131.932209 114.519946 65.805348 66.130473 114.516334 131.935822 0 114.194821 65.812573 114.512721-65.812573 131.617921 0 65.808961-114.516334 114.519946-65.805348 0-131.932209 65.801736-114.198434L942.397178 396.454103zM339.983462 264.413519l344.260665 0c12.965272 0 23.466817 10.541283 23.466817 23.546292 0 13.001397-10.501545 23.54268-23.466817 23.54268L339.983462 311.502491c-12.965272 0-23.474042-10.53767-23.474042-23.54268C316.509419 274.954801 327.014577 264.413519 339.983462 264.413519zM714.740873 696.08591c0 13.008622-10.32092 23.553517-23.062217 23.553517l-96.22262 0-162.548169 0-100.752699 0c-12.961659 0-23.474042-10.544895-23.474042-23.553517l0-158.466041c5.079179 0.942863 10.299245 1.495576 15.649361 1.495576 2.637127 0 5.241741-0.140888 7.824681-0.382925l0-0.007225c2.246977-0.213138 4.450603-0.545488 6.650617-0.924801 0.469625-0.079475 0.957313-0.1156 1.426939-0.209525 1.011501-0.18785 1.986876-0.473238 2.991152-0.700826 4.248303-0.975376 8.409906-2.181952 12.408947-3.75339l0 0.01445 0 115.845735 101.930375 0 112.811233 0 98.231172 0 0-115.845735 0-0.01445c3.930403 1.575051 8.023368 2.781627 12.192196 3.75339 0.989826 0.227588 1.947139 0.516588 2.936965 0.700826 0.4624 0.090313 0.939251 0.126438 1.405264 0.209525 2.163889 0.3757 4.324166 0.711663 6.542242 0.924801l0 0.007225c2.528752 0.242038 5.086404 0.382925 7.683793 0.382925 5.259804 0 10.389558-0.552713 15.378424-1.495576L714.744486 696.08591zM699.893488 515.572765c-34.568038 0-62.597446-28.112496-62.597446-62.788908 0 34.676413-28.025796 62.788908-62.590221 62.788908-34.568038 0-62.593833-28.112496-62.593833-62.788908 0 34.676413-28.025796 62.788908-62.593833 62.788908s-62.593833-28.112496-62.593833-62.788908c0 34.676413-28.022183 62.788908-62.593833 62.788908s-62.593833-28.112496-62.593833-62.788908l44.014732-117.731461 412.724815 0 44.01112 117.731461C762.483708 487.46027 734.461525 515.572765 699.893488 515.572765z" p-id="3326"></path></svg>